<svg xmlns="http://www.w3.org/2000/svg"
     fill="white"
     viewBox="0 0 318 92"
>
  <!-- Filters -->
  <filter id="shadow">
    <feDropShadow dx="0" dy="0" stdDeviation="4" flood-color="white"/>
  </filter>

  <g filter="url(#shadow)">

    <!-- Star -->
    <path id="logo"
          fill-rule="evenodd"
          d="M41.354 12.305c1.717-4.129 7.575-4.129 9.292 0l7.98 19.194 20.716 1.66c4.462.356 6.272 5.922 2.871 8.835l-15.781 13.52 4.818 20.214c1.039 4.354-3.695 7.793-7.513 5.462L46 70.357 28.263 81.19c-3.818 2.33-8.552-1.112-7.513-5.462l4.818-20.214-15.782-13.52c-3.4-2.913-1.59-8.48 2.872-8.836l20.715-1.66 7.98-19.193Z"
          clip-rule="evenodd"
    />
  </g>

  <!-- Text -->
  <path
    d="M105.769 81V11.182h24.887c5.409 0 9.897.932 13.465 2.795 3.591 1.864 6.273 4.444 8.046 7.739 1.773 3.273 2.659 7.057 2.659 11.352 0 4.273-.898 8.034-2.693 11.284-1.773 3.228-4.455 5.739-8.046 7.534-3.568 1.796-8.056 2.694-13.466 2.694h-18.852V45.51h17.898c3.409 0 6.182-.488 8.318-1.466 2.159-.977 3.739-2.397 4.739-4.26 1-1.864 1.5-4.103 1.5-6.717 0-2.636-.512-4.92-1.534-6.852-1-1.932-2.58-3.41-4.739-4.432-2.136-1.045-4.943-1.568-8.42-1.568h-13.228V81h-10.534Zm34.466-31.5 17.25 31.5h-12l-16.909-31.5h11.659Zm47.881 32.454c-4.681 0-8.863-.806-12.545-2.42-3.659-1.614-6.557-3.852-8.693-6.716-2.114-2.886-3.25-6.227-3.409-10.023h10.704c.137 2.069.83 3.864 2.08 5.387 1.273 1.5 2.932 2.659 4.977 3.477 2.046.818 4.318 1.227 6.818 1.227 2.75 0 5.182-.477 7.296-1.431 2.136-.955 3.807-2.284 5.011-3.99 1.205-1.726 1.807-3.715 1.807-5.965 0-2.34-.602-4.398-1.807-6.17-1.182-1.796-2.92-3.205-5.216-4.228-2.273-1.022-5.023-1.534-8.25-1.534h-5.898v-8.59h5.898c2.591 0 4.864-.467 6.818-1.398 1.978-.932 3.523-2.228 4.637-3.887 1.113-1.682 1.67-3.648 1.67-5.897 0-2.16-.488-4.035-1.466-5.625-.954-1.614-2.318-2.875-4.091-3.785-1.75-.909-3.818-1.363-6.204-1.363-2.273 0-4.398.42-6.375 1.261-1.955.818-3.546 2-4.773 3.546-1.227 1.522-1.886 3.352-1.977 5.488h-10.193c.113-3.773 1.227-7.09 3.341-9.954 2.136-2.864 4.954-5.103 8.454-6.716 3.5-1.614 7.386-2.42 11.659-2.42 4.477 0 8.341.874 11.591 2.624 3.273 1.727 5.796 4.034 7.568 6.92 1.796 2.887 2.682 6.046 2.659 9.478.023 3.91-1.068 7.227-3.272 9.955-2.182 2.727-5.091 4.556-8.728 5.488v.546c4.637.704 8.228 2.545 10.773 5.522 2.568 2.978 3.841 6.67 3.818 11.08.023 3.84-1.045 7.284-3.204 10.33-2.137 3.045-5.057 5.443-8.762 7.193-3.704 1.727-7.943 2.59-12.716 2.59Zm33.223-14.59V58.84l30.17-47.66h6.716v12.546h-4.261l-21.58 34.16v.545h41.352v8.932h-52.397ZM254.441 81V64.773l.068-3.887V11.182h9.989V81h-10.057ZM310 77.602v5.767l-25.455-8.787v-6.935L310 58.872v5.767l-19.638 6.376v.199L310 77.602Zm-10.005.36V64.34h4.201v13.623h-4.201ZM310 53.359h-25.455V43.315c0-1.93.369-3.575 1.107-4.934.729-1.359 1.744-2.395 3.045-3.107 1.292-.721 2.784-1.081 4.474-1.081 1.691 0 3.182.364 4.475 1.093 1.292.73 2.299 1.786 3.02 3.17.721 1.375 1.081 3.04 1.081 4.996v6.401h-4.313v-5.53c0-1.037-.178-1.89-.534-2.561-.365-.68-.866-1.185-1.504-1.517-.646-.34-1.388-.51-2.225-.51-.845 0-1.582.17-2.212.51-.638.332-1.131.837-1.479 1.517-.357.68-.535 1.54-.535 2.585v3.63H310v5.381Zm0-25.111h-25.455V18.204c0-1.93.369-3.575 1.107-4.934.729-1.359 1.744-2.395 3.045-3.107 1.292-.721 2.784-1.082 4.474-1.082 1.691 0 3.182.365 4.475 1.094 1.292.73 2.299 1.786 3.02 3.17.721 1.375 1.081 3.04 1.081 4.996v6.4h-4.313v-5.53c0-1.036-.178-1.89-.534-2.56-.365-.68-.866-1.185-1.504-1.517-.646-.34-1.388-.51-2.225-.51-.845 0-1.582.17-2.212.51-.638.332-1.131.837-1.479 1.517-.357.679-.535 1.54-.535 2.585v3.63H310v5.38Z"/>
</svg>
